<?xml version="1.0" standalone="no"?>
<!DOCTYPE svg PUBLIC "-//W3C//DTD SVG 20010904//EN"
 "http://www.w3.org/TR/2001/REC-SVG-20010904/DTD/svg10.dtd">
<svg version="1.0" xmlns="http://www.w3.org/2000/svg"
 width="260.000000pt" height="260.000000pt" viewBox="0 0 260.000000 260.000000"
 preserveAspectRatio="xMidYMid meet">
<metadata>
Created by potrace 1.11, written by Peter Selinger 2001-2013
</metadata>
<g transform="translate(0.000000,260.000000) scale(0.100000,-0.100000)"
fill="#000000" stroke="none">
<path d="M1524 1906 c-39 -17 -64 -52 -64 -88 0 -21 -5 -28 -20 -28 -11 0 -20
-4 -20 -10 0 -5 9 -10 20 -10 19 0 20 -7 20 -115 0 -96 -3 -115 -15 -115 -8 0
-15 -4 -15 -10 0 -6 32 -10 75 -10 70 0 95 10 60 24 -12 4 -15 27 -15 116 l0
110 45 0 c25 0 45 5 45 10 0 6 -21 10 -46 10 l-47 0 7 46 c7 54 12 64 32 64
10 0 14 -12 14 -39 0 -22 5 -43 10 -46 19 -12 50 6 56 32 14 53 -74 90 -142
59z"/>
<path d="M229 1791 c-22 -17 -27 -17 -44 -5 -10 8 -37 14 -59 14 -36 -1 -39
-2 -23 -14 14 -11 17 -30 17 -130 0 -96 -3 -116 -15 -116 -8 0 -15 -4 -15 -10
0 -6 32 -10 75 -10 43 0 75 4 75 10 0 6 -4 10 -10 10 -15 0 -13 213 2 228 17
17 45 15 52 -4 3 -9 6 -63 6 -120 0 -86 -3 -104 -15 -104 -8 0 -15 -4 -15 -10
0 -6 32 -10 75 -10 43 0 75 4 75 10 0 6 -7 10 -15 10 -12 0 -15 18 -15 101 0
108 9 139 41 139 29 0 39 -38 39 -146 0 -92 1 -95 26 -104 33 -13 94 -13 94 0
0 6 -7 10 -15 10 -12 0 -15 17 -15 95 0 107 -12 144 -55 163 -39 18 -73 14
-98 -11 l-23 -22 -33 22 c-41 28 -80 29 -112 4z"/>
<path d="M690 1792 c-71 -35 -99 -118 -66 -197 21 -50 68 -75 140 -75 55 0 61
3 97 39 36 36 39 42 39 97 0 42 -6 69 -20 92 -36 58 -122 79 -190 44z m98 -19
c15 -30 24 -110 16 -158 -12 -84 -58 -108 -84 -45 -16 38 -10 181 9 203 18 22
48 22 59 0z"/>
<path d="M1024 1796 c-98 -43 -107 -205 -14 -260 39 -23 127 -21 166 3 40 25
69 95 61 148 -16 96 -120 149 -213 109z m96 -21 c7 -9 15 -49 18 -89 7 -119
-26 -182 -72 -136 -18 18 -21 33 -21 108 0 93 13 132 44 132 10 0 24 -7 31
-15z"/>
<path d="M2011 1792 c-93 -50 -94 -209 -2 -257 34 -17 113 -20 142 -5 21 12
52 64 42 73 -3 4 -15 -8 -27 -26 -17 -25 -30 -33 -58 -35 -43 -4 -68 24 -68
75 0 33 0 33 53 34 28 1 66 4 82 8 27 6 30 10 29 44 -3 84 -110 134 -193 89z
m87 -14 c7 -7 12 -34 12 -60 l0 -48 -35 0 c-34 0 -35 1 -35 41 0 66 27 98 58
67z"/>
<path d="M2323 1795 c-48 -20 -73 -68 -73 -138 0 -51 4 -61 34 -94 30 -33 39
-37 94 -41 58 -4 63 -3 92 26 28 28 43 71 20 57 -5 -3 -10 -12 -10 -19 0 -42
-99 -65 -119 -27 -6 10 -12 34 -13 52 -3 37 -9 34 95 44 l67 7 0 37 c0 86 -96
136 -187 96z m87 -24 c5 -11 10 -38 10 -60 l0 -41 -41 0 -41 0 7 46 c3 26 9
53 12 60 8 20 41 17 53 -5z"/>
<path d="M1665 1790 c3 -5 12 -10 19 -10 21 0 21 -229 0 -237 -34 -13 -8 -23
61 -23 43 0 75 4 75 10 0 6 -7 10 -15 10 -12 0 -15 18 -15 103 0 88 3 106 18
120 29 26 42 20 42 -19 0 -32 2 -35 26 -32 37 4 51 29 36 62 -9 21 -18 26 -50
26 -20 0 -48 -7 -60 -16 -20 -14 -24 -14 -44 0 -25 18 -103 22 -93 6z"/>
<path d="M1280 1291 c0 -5 7 -11 15 -15 13 -5 15 -40 15 -237 0 -222 -1 -231
-20 -236 -49 -13 -12 -23 85 -23 98 0 132 10 85 25 -17 5 -20 15 -20 61 0 30
2 54 4 54 2 0 18 -23 36 -50 50 -77 71 -90 151 -90 68 0 91 12 47 24 -21 5
-42 34 -136 188 l-22 37 31 36 c18 20 49 45 71 56 21 11 38 24 38 29 0 13
-137 13 -145 0 -3 -5 5 -15 19 -22 14 -6 26 -14 26 -17 0 -4 -27 -33 -60 -66
l-60 -59 0 137 c0 168 -5 177 -100 177 -33 0 -60 -4 -60 -9z"/>
<path d="M140 1146 c0 -9 8 -16 20 -16 19 0 20 -7 20 -161 0 -152 -1 -161 -20
-166 -49 -13 -12 -23 85 -23 97 0 134 10 85 23 -19 5 -20 14 -20 146 0 128 2
143 20 161 24 24 34 25 54 4 13 -13 16 -42 16 -161 0 -136 -1 -145 -20 -150
-49 -13 -12 -23 85 -23 97 0 134 10 85 23 -19 5 -20 14 -20 144 0 126 2 141
20 161 25 27 46 28 58 5 5 -10 13 -81 16 -158 9 -170 12 -175 103 -175 62 0
83 12 43 25 -19 6 -20 15 -20 142 l0 135 -39 39 c-35 35 -44 39 -91 39 -43 0
-56 -5 -80 -28 l-28 -28 -31 28 c-43 39 -116 40 -160 3 l-30 -26 -21 21 c-11
11 -31 20 -44 20 -13 0 -38 3 -55 6 -24 5 -31 3 -31 -10z"/>
<path d="M930 1153 c-8 -3 -25 -15 -37 -26 -44 -40 -19 -107 40 -107 26 0 27
2 27 60 l0 60 30 0 c17 0 39 -9 49 -19 19 -19 38 -112 26 -131 -3 -5 -25 -10
-48 -11 -83 -2 -151 -22 -164 -49 -42 -82 17 -160 121 -160 36 0 52 6 77 28
l32 28 23 -23 c18 -18 34 -23 74 -23 53 0 60 5 33 25 -14 10 -18 34 -21 126
-4 134 -19 173 -78 206 -30 17 -54 23 -104 22 -36 0 -72 -3 -80 -6z m140 -248
c0 -46 -4 -60 -25 -80 -28 -29 -38 -31 -59 -9 -11 10 -16 34 -16 69 0 61 12
74 68 75 l32 0 0 -55z"/>
<path d="M1810 1153 c-67 -25 -111 -100 -111 -186 0 -63 14 -103 49 -141 73
-78 222 -75 272 6 11 18 20 39 20 46 0 21 -20 13 -30 -12 -20 -52 -92 -82
-140 -56 -29 15 -57 127 -32 131 13 3 45 6 125 13 63 6 79 11 88 28 26 48 -22
137 -88 164 -32 14 -124 18 -153 7z m100 -28 c6 -8 14 -42 17 -76 7 -70 0 -79
-59 -79 l-38 0 0 50 c0 93 43 150 80 105z"/>
<path d="M2163 1140 c-62 -37 -70 -90 -21 -145 17 -20 50 -45 72 -57 67 -34
106 -67 106 -92 0 -31 -18 -46 -58 -46 -47 0 -67 14 -98 65 -38 66 -54 60 -54
-20 0 -56 3 -65 18 -65 10 0 23 5 29 11 9 9 21 8 46 -5 40 -18 114 -21 169 -6
71 20 101 98 58 153 -12 14 -57 47 -100 73 -80 48 -97 68 -85 103 16 51 83 31
125 -36 42 -66 54 -62 58 20 3 72 -5 82 -40 50 -18 -16 -21 -16 -47 0 -41 24
-137 23 -178 -3z"/>
</g>
</svg>
